<svg width="133" height="133" viewBox="0 0 133 133" fill="none" xmlns="http://www.w3.org/2000/svg">
<circle cx="66.5" cy="66.5" r="66" fill="#FFDABA"/>
<path fill-rule="evenodd" clip-rule="evenodd" d="M66.5 106.5C88.5914 106.5 106.5 88.5914 106.5 66.5C106.5 66.0981 106.494 65.6976 106.482 65.2985C106.46 64.5445 105.627 64.116 104.973 64.4917C96.1918 69.5366 84.4865 72.4021 73.352 73.454C66.1206 74.1372 59.0291 74.0658 52.9786 73.2931C48.5899 72.7327 44.6416 71.7905 41.5733 70.432C43.1764 77.0016 47.4059 83.091 53.7495 87.7068C54.4351 88.2056 54.5865 89.1658 54.0876 89.8514C53.5888 90.5369 52.6286 90.6883 51.943 90.1895C44.1551 84.5228 39.1401 76.6622 38.02 68.112C38.0156 68.078 38.0123 68.0441 38.0101 68.0104C37.858 67.5615 37.9151 67.0486 38.2091 66.6317C38.6978 65.9388 39.6556 65.7732 40.3485 66.2619C42.9548 68.0999 47.5179 69.5006 53.3675 70.2475C59.1619 70.9874 66.0237 71.0623 73.0632 70.3973C85.0011 69.2695 97.1656 66.0434 105.486 60.5756C105.809 60.3634 105.973 59.9792 105.907 59.5985C102.637 40.7961 86.2379 26.5 66.5 26.5C44.4086 26.5 26.5 44.4086 26.5 66.5C26.5 88.5914 44.4086 106.5 66.5 106.5ZM80.0541 53.4808C81.3274 53.4808 82.3596 52.4486 82.3596 51.1754C82.3596 49.9022 81.3274 48.87 80.0541 48.87C78.7809 48.87 77.7487 49.9022 77.7487 51.1754C77.7487 52.4486 78.7809 53.4808 80.0541 53.4808ZM92.632 51.1754C92.632 52.4486 91.5998 53.4808 90.3265 53.4808C89.0533 53.4808 88.0211 52.4486 88.0211 51.1754C88.0211 49.9022 89.0533 48.87 90.3265 48.87C91.5998 48.87 92.632 49.9022 92.632 51.1754Z" fill="#FFA14E"/>
</svg>
