<svg width="40" height="40" viewBox="0 0 40 40" fill="none" xmlns="http://www.w3.org/2000/svg">
<circle cx="20" cy="20" r="20" fill="#EBE8E4"/>
<path fill-rule="evenodd" clip-rule="evenodd" d="M20.0001 32.1212C26.6945 32.1212 32.1213 26.6944 32.1213 20C32.1213 19.6064 31.6866 19.3815 31.3404 19.5688C28.7188 20.9877 25.3178 21.8011 22.0765 22.1073C19.8851 22.3143 17.7362 22.2926 15.9027 22.0585C14.5728 21.8887 13.3764 21.6032 12.4466 21.1915C12.9324 23.1823 14.214 25.0276 16.1363 26.4263C16.3441 26.5775 16.39 26.8684 16.2388 27.0762C16.0876 27.2839 15.7967 27.3298 15.5889 27.1786C13.2289 25.4614 11.7092 23.0794 11.3698 20.4885C11.3685 20.4782 11.3675 20.4679 11.3668 20.4577C11.3207 20.3217 11.338 20.1663 11.4271 20.0399C11.5752 19.8299 11.8654 19.7798 12.0754 19.9278C12.8652 20.4848 14.248 20.9093 16.0206 21.1356C17.7764 21.3598 19.8558 21.3825 21.989 21.181C25.4318 20.8557 28.9369 19.9546 31.4408 18.44C31.7714 18.24 31.9382 17.8538 31.8581 17.4757C30.6967 11.9929 25.8289 7.87878 20.0001 7.87878C13.3058 7.87878 7.87891 13.3056 7.87891 20C7.87891 26.6944 13.3058 32.1212 20.0001 32.1212ZM24.1074 16.0548C24.4933 16.0548 24.806 15.742 24.806 15.3562C24.806 14.9703 24.4933 14.6576 24.1074 14.6576C23.7216 14.6576 23.4088 14.9703 23.4088 15.3562C23.4088 15.742 23.7216 16.0548 24.1074 16.0548ZM27.9189 15.3562C27.9189 15.742 27.6061 16.0548 27.2203 16.0548C26.8344 16.0548 26.5217 15.742 26.5217 15.3562C26.5217 14.9703 26.8344 14.6576 27.2203 14.6576C27.6061 14.6576 27.9189 14.9703 27.9189 15.3562Z" fill="#CDC3B9"/>
</svg>
