<svg width="20" height="20" viewBox="0 0 20 20" fill="none" xmlns="http://www.w3.org/2000/svg">
<path fill-rule="evenodd" clip-rule="evenodd" d="M10.7258 3.22581C10.7258 2.82495 10.4008 2.5 9.99998 2.5C9.59912 2.5 9.27417 2.82495 9.27417 3.22581V9.27417H3.22581C2.82495 9.27417 2.5 9.59912 2.5 9.99998C2.5 10.4008 2.82495 10.7258 3.22581 10.7258H9.27417V16.7742C9.27417 17.175 9.59912 17.5 9.99998 17.5C10.4008 17.5 10.7258 17.175 10.7258 16.7742V10.7258H16.7742C17.175 10.7258 17.5 10.4008 17.5 9.99998C17.5 9.59912 17.175 9.27417 16.7742 9.27417H10.7258V3.22581Z" fill="white"/>
</svg>
