<svg width="16" height="17" viewBox="0 0 16 17" fill="none" xmlns="http://www.w3.org/2000/svg">
<path fill-rule="evenodd" clip-rule="evenodd" d="M8.58063 3.08065C8.58063 2.75996 8.32066 2.5 7.99998 2.5C7.6793 2.5 7.41934 2.75996 7.41934 3.08065V7.91934H2.58065C2.25996 7.91934 2 8.1793 2 8.49998C2 8.82066 2.25996 9.08063 2.58065 9.08063H7.41934V13.9194C7.41934 14.24 7.6793 14.5 7.99998 14.5C8.32066 14.5 8.58063 14.24 8.58063 13.9194V9.08063H13.4194C13.74 9.08063 14 8.82066 14 8.49998C14 8.1793 13.74 7.91934 13.4194 7.91934H8.58063V3.08065Z" fill="#FF8922"/>
</svg>
