<svg width="100" height="100" viewBox="0 0 100 100" fill="none" xmlns="http://www.w3.org/2000/svg">
<ellipse cx="50.091" cy="87.5028" rx="22.2951" ry="5.76701" fill="#CDC3B9"/>
<path d="M49.9996 87.1964C49.5238 87.1964 49.048 87.1019 48.5722 86.913C48.0964 86.7241 47.6801 86.4722 47.3233 86.1573C38.6401 78.0339 32.1574 70.4936 27.8753 63.5364C23.5932 56.5767 21.4521 50.0742 21.4521 44.0289C21.4521 34.583 24.3224 27.0578 30.0628 21.4533C35.8008 15.8488 42.4464 13.0465 49.9996 13.0465C57.5528 13.0465 64.1984 15.8488 69.9364 21.4533C75.6768 27.0578 78.547 34.583 78.547 44.0289C78.547 50.0742 76.406 56.5767 72.1239 63.5364C67.8417 70.4936 61.3591 78.0339 52.6759 86.1573C52.3191 86.4722 51.9028 86.7241 51.427 86.913C50.9512 87.1019 50.4754 87.1964 49.9996 87.1964Z" fill="#EBE8E4"/>
<path fill-rule="evenodd" clip-rule="evenodd" d="M31.667 40.9948C31.667 30.8193 39.9159 22.5704 50.0914 22.5704C60.2669 22.5704 68.5157 30.8193 68.5157 40.9948C68.5157 51.1703 60.2669 59.4192 50.0914 59.4192C39.9159 59.4192 31.667 51.1703 31.667 40.9948ZM50.6064 33.7586C49.7088 33.6047 48.7857 33.7733 48.0006 34.2348C47.2154 34.6962 46.6189 35.4206 46.3167 36.2797C46.0811 36.9494 45.3473 37.3013 44.6776 37.0657C44.0079 36.8301 43.656 36.0963 43.8915 35.4266C44.3952 33.9948 45.3894 32.7874 46.698 32.0184C48.0065 31.2493 49.545 30.9682 51.041 31.2248C52.537 31.4814 53.8939 32.2591 54.8713 33.4203C55.8486 34.5812 56.3835 36.0504 56.3816 37.5678C56.3812 39.9637 54.6012 41.5842 53.2383 42.4928C52.5177 42.9733 51.8062 43.3281 51.2799 43.562C51.0149 43.6798 50.7923 43.7689 50.633 43.8296C50.5532 43.86 50.489 43.8834 50.4428 43.8998L50.3874 43.9192L50.3705 43.925L50.3647 43.9269L50.3626 43.9276C50.3622 43.9278 50.3609 43.9282 49.9545 42.7087L50.3609 43.9282C49.6874 44.1527 48.9595 43.7887 48.735 43.1152C48.5107 42.4424 48.8738 41.7152 49.546 41.4899L49.551 41.4882L49.5816 41.4775C49.6108 41.4671 49.657 41.4503 49.7178 41.4272C49.8396 41.3808 50.0187 41.3092 50.2358 41.2127C50.6736 41.0182 51.2475 40.7303 51.8123 40.3538C53.0201 39.5486 53.8107 38.5985 53.8107 37.567L53.8107 37.5651C53.8121 36.6544 53.4911 35.7726 52.9046 35.0759C52.3181 34.3792 51.504 33.9126 50.6064 33.7586ZM50.0921 48.2788C49.3821 48.2788 48.8066 48.8543 48.8066 49.5642C48.8066 50.2741 49.3821 50.8496 50.0921 50.8496H50.1092C50.8191 50.8496 51.3946 50.2741 51.3946 49.5642C51.3946 48.8543 50.8191 48.2788 50.1092 48.2788H50.0921Z" fill="#CDC3B9"/>
<path fill-rule="evenodd" clip-rule="evenodd" d="M15.3548 16.0741C15.8571 15.369 16.8359 15.2046 17.541 15.7069L24.6652 20.7818C25.3703 21.2841 25.5347 22.2629 25.0324 22.9681C24.5301 23.6732 23.5513 23.8376 22.8462 23.3353L15.722 18.2603C15.0169 17.758 14.8525 16.7792 15.3548 16.0741Z" fill="#E2DDD7"/>
<path fill-rule="evenodd" clip-rule="evenodd" d="M26.0971 7.87864C26.8427 7.43866 27.8038 7.68642 28.2438 8.43202L32.033 14.8534C32.473 15.599 32.2252 16.5601 31.4796 17.0001C30.734 17.4401 29.7729 17.1923 29.333 16.4467L25.5437 10.0253C25.1037 9.27972 25.3515 8.31862 26.0971 7.87864Z" fill="#E2DDD7"/>
<path fill-rule="evenodd" clip-rule="evenodd" d="M10.0006 29.469C9.90388 30.3293 10.5229 31.1052 11.3832 31.2019L19.5836 32.124C20.4439 32.2207 21.2197 31.6017 21.3165 30.7414C21.4132 29.8811 20.7942 29.1052 19.9339 29.0085L11.7335 28.0864C10.8732 27.9897 10.0974 28.6087 10.0006 29.469Z" fill="#E2DDD7"/>
</svg>
