<svg width="100" height="100" viewBox="0 0 100 100" fill="none" xmlns="http://www.w3.org/2000/svg">
<path fill-rule="evenodd" clip-rule="evenodd" d="M44 42.382C44 32.2065 52.2489 23.9576 62.4244 23.9576C72.5999 23.9576 80.8487 32.2065 80.8487 42.382C80.8487 52.5575 72.5999 60.8064 62.4244 60.8064C52.2489 60.8064 44 52.5575 44 42.382ZM62.9394 35.1458C62.0418 34.9919 61.1187 35.1605 60.3336 35.622C59.5484 36.0834 58.9519 36.8078 58.6497 37.6669C58.4141 38.3366 57.6803 38.6885 57.0106 38.4529C56.3409 38.2174 55.989 37.4835 56.2246 36.8138C56.7282 35.382 57.7224 34.1746 59.031 33.4056C60.3395 32.6365 61.878 32.3554 63.374 32.612C64.87 32.8686 66.2269 33.6464 67.2044 34.8075C68.1816 35.9684 68.7166 37.4376 68.7146 38.955C68.7142 41.3509 66.9342 42.9714 65.5713 43.88C64.8507 44.3605 64.1392 44.7153 63.6129 44.9492C63.3479 45.067 63.1254 45.1561 62.966 45.2168C62.8862 45.2472 62.822 45.2706 62.7758 45.287L62.7204 45.3064L62.7035 45.3122L62.6978 45.3141L62.6956 45.3148C62.6952 45.315 62.6939 45.3154 62.2875 44.0959L62.6939 45.3154C62.0205 45.5399 61.2925 45.1759 61.068 44.5024C60.8437 43.8296 61.2068 43.1024 61.879 42.8771L61.884 42.8754L61.9146 42.8647C61.9438 42.8543 61.99 42.8375 62.0508 42.8144C62.1726 42.768 62.3517 42.6964 62.5688 42.5999C63.0066 42.4054 63.5805 42.1175 64.1453 41.741C65.3531 40.9358 66.1437 39.9858 66.1437 38.9542L66.1437 38.9523C66.1451 38.0416 65.8241 37.1599 65.2376 36.4632C64.6511 35.7664 63.837 35.2998 62.9394 35.1458ZM62.4251 49.666C61.7152 49.666 61.1396 50.2415 61.1396 50.9514C61.1396 51.6614 61.7152 52.2369 62.4251 52.2369H62.4422C63.1521 52.2369 63.7276 51.6614 63.7276 50.9514C63.7276 50.2415 63.1521 49.666 62.4422 49.666H62.4251Z" fill="#CDC3B9"/>
<path d="M72.2314 71.3859L80.8917 66.3859L87.3917 77.6442C88.7724 80.0357 87.953 83.0936 85.5616 84.4743C83.1701 85.855 80.1122 85.0357 78.7314 82.6442L72.2314 71.3859Z" fill="#EBE8E4"/>
<path d="M71.5972 68.2877L78.5254 64.2877L76.0254 59.9576L69.0972 63.9576L71.5972 68.2877Z" fill="#CDC3B9"/>
<path d="M82.3916 68.9839L80.8916 66.3859L72.2313 71.3859L73.7313 73.9839L82.3916 68.9839Z" fill="#E2DDD7"/>
<path d="M79.825 63.5377C80.5424 63.1235 81.4598 63.3693 81.874 64.0868Lnan nanL81.874 64.0868C82.2882 64.8042 82.0424 65.7216 81.325 66.1358L71.7987 71.6358C71.0813 72.05 70.1639 71.8042 69.7497 71.0868Lnan nanL69.7497 71.0868C69.3355 70.3693 69.5813 69.4519 70.2987 69.0377L79.825 63.5377Z" fill="#EBE8E4"/>
<rect x="12" y="27.9576" width="22" height="3.5" rx="1.75" fill="#E2DDD7"/>
<rect x="12" y="37.9576" width="21" height="3.5" rx="1.75" fill="#E2DDD7"/>
<rect x="12" y="48" width="21" height="3.5" rx="1.75" fill="#E2DDD7"/>
<rect x="12" y="58" width="25" height="3.5" rx="1.75" fill="#E2DDD7"/>
<path fill-rule="evenodd" clip-rule="evenodd" d="M72.4647 59.8683C82.1941 54.251 85.5276 41.8101 79.9103 32.0807C74.2931 22.3513 61.8521 19.0178 52.1227 24.6351C42.3933 30.2523 39.0598 42.6933 44.6771 52.4227C50.2943 62.152 62.7353 65.4856 72.4647 59.8683ZM74.4647 63.3324C86.1072 56.6106 90.0963 41.7233 83.3744 30.0807C76.6526 18.4382 61.7653 14.4491 50.1227 21.171C38.4802 27.8928 34.4911 42.7801 41.213 54.4227C47.9348 66.0652 62.8221 70.0543 74.4647 63.3324Z" fill="#EBE8E4"/>
</svg>
