<svg width="16" height="17" viewBox="0 0 16 17" fill="none" xmlns="http://www.w3.org/2000/svg">
<path fill-rule="evenodd" clip-rule="evenodd" d="M0.666504 8.49996C0.666504 4.44987 3.94975 1.16663 7.99984 1.16663C12.0499 1.16663 15.3332 4.44987 15.3332 8.49996C15.3332 12.55 12.0499 15.8333 7.99984 15.8333C3.94975 15.8333 0.666504 12.55 0.666504 8.49996ZM7.99984 4.83727C8.37659 4.83727 8.68201 5.1021 8.68201 5.42878V8.75779C8.68201 9.08447 8.37659 9.3493 7.99984 9.3493C7.62308 9.3493 7.31767 9.08447 7.31767 8.75779V5.42878C7.31767 5.1021 7.62308 4.83727 7.99984 4.83727ZM7.99984 12.1627C8.37659 12.1627 8.68201 11.869 8.68201 11.5068C8.68201 11.1445 8.37659 10.8508 7.99984 10.8508C7.62308 10.8508 7.31767 11.1445 7.31767 11.5068C7.31767 11.869 7.62308 12.1627 7.99984 12.1627Z" fill="#FF4D4D"/>
</svg>
