<svg width="24" height="24" viewBox="0 0 24 24" fill="none" xmlns="http://www.w3.org/2000/svg">
<path fill-rule="evenodd" clip-rule="evenodd" d="M1 12C1 5.92487 5.92487 1 12 1C18.0751 1 23 5.92487 23 12C23 18.0751 18.0751 23 12 23C5.92487 23 1 18.0751 1 12ZM12 6.50597C12.5651 6.50597 13.0233 6.90321 13.0233 7.39323V12.3868C13.0233 12.8768 12.5651 13.274 12 13.274C11.4349 13.274 10.9767 12.8768 10.9767 12.3868V7.39323C10.9767 6.90321 11.4349 6.50597 12 6.50597ZM12 17.4941C12.5651 17.4941 13.0233 17.0536 13.0233 16.5102C13.0233 15.9668 12.5651 15.5263 12 15.5263C11.4349 15.5263 10.9767 15.9668 10.9767 16.5102C10.9767 17.0536 11.4349 17.4941 12 17.4941Z" fill="#FFCC00"/>
</svg>
